# MagicaVoxel @ Ephtracy

# group
o 

# material
mtllib wheelBig_1.mtl
usemtl palette

# normals
vn -1 0 0
vn 1 0 0
vn 0 0 1
vn 0 0 -1
vn 0 -1 0
vn 0 1 0

# texcoords
vt 0.958984 0.5
vt 0.966797 0.5
vt 0.994141 0.5

# verts
v -0.8 0 0.3
v -0.8 0 -0.2
v -0.8 0.1 0.5
v -0.8 0.1 0.3
v -0.8 0.1 -0.2
v -0.8 0.1 -0.4
v -0.8 0.2 0.6
v -0.8 0.2 0.5
v -0.8 0.2 0.3
v -0.8 0.2 -0.2
v -0.8 0.2 -0.4
v -0.8 0.2 -0.5
v -0.8 0.3 0.7
v -0.8 0.3 0.6
v -0.8 0.3 0.4
v -0.8 0.3 0.3
v -0.8 0.3 -0.2
v -0.8 0.3 -0.3
v -0.8 0.3 -0.5
v -0.8 0.3 -0.6
v -0.8 0.4 0.5
v -0.8 0.4 0.4
v -0.8 0.4 -0.3
v -0.8 0.4 -0.4
v -0.8 0.5 0.8
v -0.8 0.5 0.7
v -0.8 0.5 0.6
v -0.8 0.5 0.5
v -0.8 0.5 0.3
v -0.8 0.5 0.2
v -0.8 0.5 -0.1
v -0.8 0.5 -0.2
v -0.8 0.5 -0.4
v -0.8 0.5 -0.5
v -0.8 0.5 -0.6
v -0.8 0.5 -0.7
v -0.8 0.6 0.3
v -0.8 0.6 0.2
v -0.8 0.6 -0.1
v -0.8 0.6 -0.2
v -0.8 0.7 0.1
v -0.8 0.7 0
v -0.8 0.8 0.1
v -0.8 0.8 0
v -0.8 0.9 0.3
v -0.8 0.9 0.2
v -0.8 0.9 -0.1
v -0.8 0.9 -0.2
v -0.8 1 0.8
v -0.8 1 0.7
v -0.8 1 0.6
v -0.8 1 0.5
v -0.8 1 0.3
v -0.8 1 0.2
v -0.8 1 -0.1
v -0.8 1 -0.2
v -0.8 1 -0.4
v -0.8 1 -0.5
v -0.8 1 -0.6
v -0.8 1 -0.7
v -0.8 1.1 0.5
v -0.8 1.1 0.4
v -0.8 1.1 -0.3
v -0.8 1.1 -0.4
v -0.8 1.2 0.7
v -0.8 1.2 0.6
v -0.8 1.2 0.4
v -0.8 1.2 0.3
v -0.8 1.2 -0.2
v -0.8 1.2 -0.3
v -0.8 1.2 -0.5
v -0.8 1.2 -0.6
v -0.8 1.3 0.6
v -0.8 1.3 0.5
v -0.8 1.3 0.3
v -0.8 1.3 -0.2
v -0.8 1.3 -0.4
v -0.8 1.3 -0.5
v -0.8 1.4 0.5
v -0.8 1.4 0.3
v -0.8 1.4 -0.2
v -0.8 1.4 -0.4
v -0.8 1.5 0.3
v -0.8 1.5 -0.2
v -0.6 0.3 0.3
v -0.6 0.3 -0.2
v -0.6 0.5 0.5
v -0.6 0.5 0.3
v -0.6 0.5 -0.2
v -0.6 0.5 -0.4
v -0.6 1 0.5
v -0.6 1 0.3
v -0.6 1 -0.2
v -0.6 1 -0.4
v -0.6 1.2 0.3
v -0.6 1.2 -0.2
v -0.7 0.5 0.3
v -0.7 0.5 0.2
v -0.7 0.5 -0.1
v -0.7 0.5 -0.2
v -0.7 0.6 0.3
v -0.7 0.6 0.2
v -0.7 0.6 -0.1
v -0.7 0.6 -0.2
v -0.7 0.7 0.1
v -0.7 0.7 0
v -0.7 0.8 0.1
v -0.7 0.8 0
v -0.7 0.9 0.3
v -0.7 0.9 0.2
v -0.7 0.9 -0.1
v -0.7 0.9 -0.2
v -0.7 1 0.3
v -0.7 1 0.2
v -0.7 1 -0.1
v -0.7 1 -0.2
v -0.5 0.3 0.3
v -0.5 0.3 -0.2
v -0.5 0.4 0.4
v -0.5 0.4 0.3
v -0.5 0.4 -0.2
v -0.5 0.4 -0.3
v -0.5 0.5 0.5
v -0.5 0.5 0.4
v -0.5 0.5 -0.3
v -0.5 0.5 -0.4
v -0.5 1 0.5
v -0.5 1 0.4
v -0.5 1 -0.3
v -0.5 1 -0.4
v -0.5 1.1 0.4
v -0.5 1.1 0.3
v -0.5 1.1 -0.2
v -0.5 1.1 -0.3
v -0.5 1.2 0.3
v -0.5 1.2 -0.2
v -0.4 0 0.3
v -0.4 0 -0.2
v -0.4 0.1 0.5
v -0.4 0.1 0.3
v -0.4 0.1 -0.2
v -0.4 0.1 -0.4
v -0.4 0.2 0.6
v -0.4 0.2 0.5
v -0.4 0.2 0.3
v -0.4 0.2 -0.2
v -0.4 0.2 -0.4
v -0.4 0.2 -0.5
v -0.4 0.3 0.7
v -0.4 0.3 0.6
v -0.4 0.3 0.4
v -0.4 0.3 0.3
v -0.4 0.3 -0.2
v -0.4 0.3 -0.3
v -0.4 0.3 -0.5
v -0.4 0.3 -0.6
v -0.4 0.4 0.5
v -0.4 0.4 0.4
v -0.4 0.4 0.3
v -0.4 0.4 -0.2
v -0.4 0.4 -0.3
v -0.4 0.4 -0.4
v -0.4 0.5 0.8
v -0.4 0.5 0.7
v -0.4 0.5 0.6
v -0.4 0.5 0.5
v -0.4 0.5 0.4
v -0.4 0.5 -0.3
v -0.4 0.5 -0.4
v -0.4 0.5 -0.5
v -0.4 0.5 -0.6
v -0.4 0.5 -0.7
v -0.4 1 0.8
v -0.4 1 0.7
v -0.4 1 0.6
v -0.4 1 0.5
v -0.4 1 0.4
v -0.4 1 -0.3
v -0.4 1 -0.4
v -0.4 1 -0.5
v -0.4 1 -0.6
v -0.4 1 -0.7
v -0.4 1.1 0.5
v -0.4 1.1 0.4
v -0.4 1.1 0.3
v -0.4 1.1 -0.2
v -0.4 1.1 -0.3
v -0.4 1.1 -0.4
v -0.4 1.2 0.7
v -0.4 1.2 0.6
v -0.4 1.2 0.4
v -0.4 1.2 0.3
v -0.4 1.2 -0.2
v -0.4 1.2 -0.3
v -0.4 1.2 -0.5
v -0.4 1.2 -0.6
v -0.4 1.3 0.6
v -0.4 1.3 0.5
v -0.4 1.3 0.3
v -0.4 1.3 -0.2
v -0.4 1.3 -0.4
v -0.4 1.3 -0.5
v -0.4 1.4 0.5
v -0.4 1.4 0.3
v -0.4 1.4 -0.2
v -0.4 1.4 -0.4
v -0.4 1.5 0.3
v -0.4 1.5 -0.2
v -0.8 0.5 0.8
v -0.8 1 0.8
v -0.4 0.5 0.8
v -0.4 1 0.8
v -0.8 0.3 0.7
v -0.8 0.5 0.7
v -0.8 1 0.7
v -0.8 1.2 0.7
v -0.4 0.3 0.7
v -0.4 0.5 0.7
v -0.4 1 0.7
v -0.4 1.2 0.7
v -0.8 0.2 0.6
v -0.8 0.3 0.6
v -0.8 1.2 0.6
v -0.8 1.3 0.6
v -0.4 0.2 0.6
v -0.4 0.3 0.6
v -0.4 1.2 0.6
v -0.4 1.3 0.6
v -0.8 0.1 0.5
v -0.8 0.2 0.5
v -0.8 1.3 0.5
v -0.8 1.4 0.5
v -0.4 0.1 0.5
v -0.4 0.2 0.5
v -0.4 1.3 0.5
v -0.4 1.4 0.5
v -0.8 0 0.3
v -0.8 0.1 0.3
v -0.8 0.5 0.3
v -0.8 0.6 0.3
v -0.8 0.9 0.3
v -0.8 1 0.3
v -0.8 1.4 0.3
v -0.8 1.5 0.3
v -0.7 0.5 0.3
v -0.7 0.6 0.3
v -0.7 0.9 0.3
v -0.7 1 0.3
v -0.4 0 0.3
v -0.4 0.1 0.3
v -0.4 1.4 0.3
v -0.4 1.5 0.3
v -0.8 0.6 0.2
v -0.8 0.9 0.2
v -0.7 0.6 0.2
v -0.7 0.9 0.2
v -0.8 0.7 0
v -0.8 0.8 0
v -0.7 0.7 0
v -0.7 0.8 0
v -0.8 0.5 -0.1
v -0.8 0.6 -0.1
v -0.8 0.9 -0.1
v -0.8 1 -0.1
v -0.7 0.5 -0.1
v -0.7 0.6 -0.1
v -0.7 0.9 -0.1
v -0.7 1 -0.1
v -0.8 0.3 -0.2
v -0.8 0.5 -0.2
v -0.8 1 -0.2
v -0.8 1.2 -0.2
v -0.7 0.3 -0.2
v -0.7 0.5 -0.2
v -0.7 1 -0.2
v -0.7 1.2 -0.2
v -0.6 0.3 -0.2
v -0.6 0.5 -0.2
v -0.6 1 -0.2
v -0.6 1.2 -0.2
v -0.5 0.3 -0.2
v -0.5 0.4 -0.2
v -0.5 1.1 -0.2
v -0.5 1.2 -0.2
v -0.4 0.3 -0.2
v -0.4 0.4 -0.2
v -0.4 1.1 -0.2
v -0.4 1.2 -0.2
v -0.5 0.4 -0.3
v -0.5 0.5 -0.3
v -0.5 1 -0.3
v -0.5 1.1 -0.3
v -0.4 0.4 -0.3
v -0.4 0.5 -0.3
v -0.4 1 -0.3
v -0.4 1.1 -0.3
v -0.8 0.5 -0.4
v -0.8 1 -0.4
v -0.7 0.5 -0.4
v -0.7 1 -0.4
v -0.6 0.5 -0.4
v -0.6 1 -0.4
v -0.5 0.5 -0.4
v -0.5 1 -0.4
v -0.4 0.5 -0.4
v -0.4 1 -0.4
v -0.8 0.5 0.5
v -0.8 1 0.5
v -0.7 0.5 0.5
v -0.7 1 0.5
v -0.6 0.5 0.5
v -0.6 1 0.5
v -0.5 0.5 0.5
v -0.5 1 0.5
v -0.4 0.5 0.5
v -0.4 1 0.5
v -0.5 0.4 0.4
v -0.5 0.5 0.4
v -0.5 1 0.4
v -0.5 1.1 0.4
v -0.4 0.4 0.4
v -0.4 0.5 0.4
v -0.4 1 0.4
v -0.4 1.1 0.4
v -0.8 0.3 0.3
v -0.8 0.5 0.3
v -0.8 1 0.3
v -0.8 1.2 0.3
v -0.7 0.3 0.3
v -0.7 0.5 0.3
v -0.7 1 0.3
v -0.7 1.2 0.3
v -0.6 0.3 0.3
v -0.6 0.5 0.3
v -0.6 1 0.3
v -0.6 1.2 0.3
v -0.5 0.3 0.3
v -0.5 0.4 0.3
v -0.5 1.1 0.3
v -0.5 1.2 0.3
v -0.4 0.3 0.3
v -0.4 0.4 0.3
v -0.4 1.1 0.3
v -0.4 1.2 0.3
v -0.8 0.5 0.2
v -0.8 0.6 0.2
v -0.8 0.9 0.2
v -0.8 1 0.2
v -0.7 0.5 0.2
v -0.7 0.6 0.2
v -0.7 0.9 0.2
v -0.7 1 0.2
v -0.8 0.7 0.1
v -0.8 0.8 0.1
v -0.7 0.7 0.1
v -0.7 0.8 0.1
v -0.8 0.6 -0.1
v -0.8 0.9 -0.1
v -0.7 0.6 -0.1
v -0.7 0.9 -0.1
v -0.8 0 -0.2
v -0.8 0.1 -0.2
v -0.8 0.5 -0.2
v -0.8 0.6 -0.2
v -0.8 0.9 -0.2
v -0.8 1 -0.2
v -0.8 1.4 -0.2
v -0.8 1.5 -0.2
v -0.7 0.5 -0.2
v -0.7 0.6 -0.2
v -0.7 0.9 -0.2
v -0.7 1 -0.2
v -0.4 0 -0.2
v -0.4 0.1 -0.2
v -0.4 1.4 -0.2
v -0.4 1.5 -0.2
v -0.8 0.1 -0.4
v -0.8 0.2 -0.4
v -0.8 1.3 -0.4
v -0.8 1.4 -0.4
v -0.4 0.1 -0.4
v -0.4 0.2 -0.4
v -0.4 1.3 -0.4
v -0.4 1.4 -0.4
v -0.8 0.2 -0.5
v -0.8 0.3 -0.5
v -0.8 1.2 -0.5
v -0.8 1.3 -0.5
v -0.4 0.2 -0.5
v -0.4 0.3 -0.5
v -0.4 1.2 -0.5
v -0.4 1.3 -0.5
v -0.8 0.3 -0.6
v -0.8 0.5 -0.6
v -0.8 1 -0.6
v -0.8 1.2 -0.6
v -0.4 0.3 -0.6
v -0.4 0.5 -0.6
v -0.4 1 -0.6
v -0.4 1.2 -0.6
v -0.8 0.5 -0.7
v -0.8 1 -0.7
v -0.4 0.5 -0.7
v -0.4 1 -0.7
v -0.8 0 0.3
v -0.4 0 0.3
v -0.8 0 -0.2
v -0.4 0 -0.2
v -0.8 0.1 0.5
v -0.4 0.1 0.5
v -0.8 0.1 0.3
v -0.4 0.1 0.3
v -0.8 0.1 -0.2
v -0.4 0.1 -0.2
v -0.8 0.1 -0.4
v -0.4 0.1 -0.4
v -0.8 0.2 0.6
v -0.4 0.2 0.6
v -0.8 0.2 0.5
v -0.4 0.2 0.5
v -0.8 0.2 -0.4
v -0.4 0.2 -0.4
v -0.8 0.2 -0.5
v -0.4 0.2 -0.5
v -0.8 0.3 0.7
v -0.4 0.3 0.7
v -0.8 0.3 0.6
v -0.4 0.3 0.6
v -0.8 0.3 -0.5
v -0.4 0.3 -0.5
v -0.8 0.3 -0.6
v -0.4 0.3 -0.6
v -0.8 0.5 0.8
v -0.4 0.5 0.8
v -0.8 0.5 0.7
v -0.4 0.5 0.7
v -0.8 0.5 0.3
v -0.7 0.5 0.3
v -0.8 0.5 0.2
v -0.7 0.5 0.2
v -0.8 0.5 -0.1
v -0.7 0.5 -0.1
v -0.8 0.5 -0.2
v -0.7 0.5 -0.2
v -0.8 0.5 -0.6
v -0.4 0.5 -0.6
v -0.8 0.5 -0.7
v -0.4 0.5 -0.7
v -0.8 0.6 0.2
v -0.7 0.6 0.2
v -0.8 0.6 -0.1
v -0.7 0.6 -0.1
v -0.8 0.8 0.1
v -0.7 0.8 0.1
v -0.8 0.8 0
v -0.7 0.8 0
v -0.8 0.9 0.3
v -0.7 0.9 0.3
v -0.8 0.9 0.2
v -0.7 0.9 0.2
v -0.8 0.9 -0.1
v -0.7 0.9 -0.1
v -0.8 0.9 -0.2
v -0.7 0.9 -0.2
v -0.8 1 0.5
v -0.7 1 0.5
v -0.6 1 0.5
v -0.5 1 0.5
v -0.4 1 0.5
v -0.5 1 0.4
v -0.4 1 0.4
v -0.8 1 0.3
v -0.7 1 0.3
v -0.6 1 0.3
v -0.8 1 -0.2
v -0.7 1 -0.2
v -0.6 1 -0.2
v -0.5 1 -0.3
v -0.4 1 -0.3
v -0.8 1 -0.4
v -0.7 1 -0.4
v -0.6 1 -0.4
v -0.5 1 -0.4
v -0.4 1 -0.4
v -0.5 1.1 0.4
v -0.4 1.1 0.4
v -0.5 1.1 0.3
v -0.4 1.1 0.3
v -0.5 1.1 -0.2
v -0.4 1.1 -0.2
v -0.5 1.1 -0.3
v -0.4 1.1 -0.3
v -0.8 1.2 0.3
v -0.7 1.2 0.3
v -0.6 1.2 0.3
v -0.5 1.2 0.3
v -0.4 1.2 0.3
v -0.8 1.2 -0.2
v -0.7 1.2 -0.2
v -0.6 1.2 -0.2
v -0.5 1.2 -0.2
v -0.4 1.2 -0.2
v -0.8 0.3 0.3
v -0.7 0.3 0.3
v -0.6 0.3 0.3
v -0.5 0.3 0.3
v -0.4 0.3 0.3
v -0.8 0.3 -0.2
v -0.7 0.3 -0.2
v -0.6 0.3 -0.2
v -0.5 0.3 -0.2
v -0.4 0.3 -0.2
v -0.5 0.4 0.4
v -0.4 0.4 0.4
v -0.5 0.4 0.3
v -0.4 0.4 0.3
v -0.5 0.4 -0.2
v -0.4 0.4 -0.2
v -0.5 0.4 -0.3
v -0.4 0.4 -0.3
v -0.8 0.5 0.5
v -0.7 0.5 0.5
v -0.6 0.5 0.5
v -0.5 0.5 0.5
v -0.4 0.5 0.5
v -0.5 0.5 0.4
v -0.4 0.5 0.4
v -0.8 0.5 0.3
v -0.7 0.5 0.3
v -0.6 0.5 0.3
v -0.8 0.5 -0.2
v -0.7 0.5 -0.2
v -0.6 0.5 -0.2
v -0.5 0.5 -0.3
v -0.4 0.5 -0.3
v -0.8 0.5 -0.4
v -0.7 0.5 -0.4
v -0.6 0.5 -0.4
v -0.5 0.5 -0.4
v -0.4 0.5 -0.4
v -0.8 0.6 0.3
v -0.7 0.6 0.3
v -0.8 0.6 0.2
v -0.7 0.6 0.2
v -0.8 0.6 -0.1
v -0.7 0.6 -0.1
v -0.8 0.6 -0.2
v -0.7 0.6 -0.2
v -0.8 0.7 0.1
v -0.7 0.7 0.1
v -0.8 0.7 0
v -0.7 0.7 0
v -0.8 0.9 0.2
v -0.7 0.9 0.2
v -0.8 0.9 -0.1
v -0.7 0.9 -0.1
v -0.8 1 0.8
v -0.4 1 0.8
v -0.8 1 0.7
v -0.4 1 0.7
v -0.8 1 0.3
v -0.7 1 0.3
v -0.8 1 0.2
v -0.7 1 0.2
v -0.8 1 -0.1
v -0.7 1 -0.1
v -0.8 1 -0.2
v -0.7 1 -0.2
v -0.8 1 -0.6
v -0.4 1 -0.6
v -0.8 1 -0.7
v -0.4 1 -0.7
v -0.8 1.2 0.7
v -0.4 1.2 0.7
v -0.8 1.2 0.6
v -0.4 1.2 0.6
v -0.8 1.2 -0.5
v -0.4 1.2 -0.5
v -0.8 1.2 -0.6
v -0.4 1.2 -0.6
v -0.8 1.3 0.6
v -0.4 1.3 0.6
v -0.8 1.3 0.5
v -0.4 1.3 0.5
v -0.8 1.3 -0.4
v -0.4 1.3 -0.4
v -0.8 1.3 -0.5
v -0.4 1.3 -0.5
v -0.8 1.4 0.5
v -0.4 1.4 0.5
v -0.8 1.4 0.3
v -0.4 1.4 0.3
v -0.8 1.4 -0.2
v -0.4 1.4 -0.2
v -0.8 1.4 -0.4
v -0.4 1.4 -0.4
v -0.8 1.5 0.3
v -0.4 1.5 0.3
v -0.8 1.5 -0.2
v -0.4 1.5 -0.2

# faces
f 4/3/1 2/3/1 1/3/1
f 5/3/1 2/3/1 4/3/1
f 8/3/1 4/3/1 3/3/1
f 8/3/1 6/3/1 5/3/1
f 8/3/1 5/3/1 4/3/1
f 9/3/1 6/3/1 8/3/1
f 10/3/1 6/3/1 9/3/1
f 11/3/1 6/3/1 10/3/1
f 14/3/1 8/3/1 7/3/1
f 14/3/1 9/3/1 8/3/1
f 15/3/1 9/3/1 14/3/1
f 16/1/1 10/1/1 9/1/1
f 16/3/1 9/3/1 15/3/1
f 17/3/1 12/3/1 11/3/1
f 17/1/1 10/1/1 16/1/1
f 17/3/1 11/3/1 10/3/1
f 18/3/1 12/3/1 17/3/1
f 19/3/1 12/3/1 18/3/1
f 21/3/1 14/3/1 13/3/1
f 21/3/1 15/3/1 14/3/1
f 22/1/1 16/1/1 15/1/1
f 22/3/1 15/3/1 21/3/1
f 23/3/1 20/3/1 19/3/1
f 23/3/1 19/3/1 18/3/1
f 23/1/1 18/1/1 17/1/1
f 24/3/1 20/3/1 23/3/1
f 26/3/1 21/3/1 13/3/1
f 27/3/1 21/3/1 26/3/1
f 28/1/1 22/1/1 21/1/1
f 28/3/1 21/3/1 27/3/1
f 29/1/1 16/1/1 22/1/1
f 29/1/1 22/1/1 28/1/1
f 32/1/1 23/1/1 17/1/1
f 32/1/1 24/1/1 23/1/1
f 33/3/1 20/3/1 24/3/1
f 33/1/1 24/1/1 32/1/1
f 34/3/1 20/3/1 33/3/1
f 35/3/1 20/3/1 34/3/1
f 37/1/1 30/1/1 29/1/1
f 38/1/1 30/1/1 37/1/1
f 39/1/1 32/1/1 31/1/1
f 40/1/1 32/1/1 39/1/1
f 41/1/1 39/1/1 38/1/1
f 42/1/1 39/1/1 41/1/1
f 43/1/1 41/1/1 38/1/1
f 44/1/1 39/1/1 42/1/1
f 46/1/1 43/1/1 38/1/1
f 46/1/1 44/1/1 43/1/1
f 47/1/1 39/1/1 44/1/1
f 47/1/1 44/1/1 46/1/1
f 49/3/1 27/3/1 26/3/1
f 49/3/1 26/3/1 25/3/1
f 50/3/1 27/3/1 49/3/1
f 51/1/1 28/1/1 27/1/1
f 51/3/1 27/3/1 50/3/1
f 52/1/1 28/1/1 51/1/1
f 53/1/1 46/1/1 45/1/1
f 54/1/1 46/1/1 53/1/1
f 55/1/1 48/1/1 47/1/1
f 56/1/1 48/1/1 55/1/1
f 57/1/1 34/1/1 33/1/1
f 58/3/1 36/3/1 35/3/1
f 58/3/1 35/3/1 34/3/1
f 58/1/1 34/1/1 57/1/1
f 59/3/1 36/3/1 58/3/1
f 60/3/1 36/3/1 59/3/1
f 61/3/1 52/3/1 51/3/1
f 61/1/1 53/1/1 52/1/1
f 61/3/1 51/3/1 50/3/1
f 62/1/1 53/1/1 61/1/1
f 63/1/1 57/1/1 56/1/1
f 64/3/1 59/3/1 58/3/1
f 64/1/1 57/1/1 63/1/1
f 64/3/1 58/3/1 57/3/1
f 65/3/1 62/3/1 61/3/1
f 65/3/1 61/3/1 50/3/1
f 66/3/1 62/3/1 65/3/1
f 67/1/1 53/1/1 62/1/1
f 67/3/1 62/3/1 66/3/1
f 68/1/1 53/1/1 67/1/1
f 69/1/1 63/1/1 56/1/1
f 70/3/1 64/3/1 63/3/1
f 70/1/1 63/1/1 69/1/1
f 71/3/1 59/3/1 64/3/1
f 71/3/1 64/3/1 70/3/1
f 72/3/1 59/3/1 71/3/1
f 73/3/1 68/3/1 67/3/1
f 73/3/1 67/3/1 66/3/1
f 74/3/1 68/3/1 73/3/1
f 75/1/1 69/1/1 68/1/1
f 75/3/1 68/3/1 74/3/1
f 76/3/1 70/3/1 69/3/1
f 76/1/1 69/1/1 75/1/1
f 76/3/1 71/3/1 70/3/1
f 77/3/1 71/3/1 76/3/1
f 78/3/1 71/3/1 77/3/1
f 79/3/1 75/3/1 74/3/1
f 79/3/1 77/3/1 76/3/1
f 79/3/1 76/3/1 75/3/1
f 80/3/1 77/3/1 79/3/1
f 81/3/1 77/3/1 80/3/1
f 82/3/1 77/3/1 81/3/1
f 83/3/1 81/3/1 80/3/1
f 84/3/1 81/3/1 83/3/1
f 88/2/1 86/2/1 85/2/1
f 89/2/1 86/2/1 88/2/1
f 91/2/1 88/2/1 87/2/1
f 91/2/1 90/2/1 89/2/1
f 91/2/1 89/2/1 88/2/1
f 92/2/1 90/2/1 91/2/1
f 93/2/1 90/2/1 92/2/1
f 94/2/1 90/2/1 93/2/1
f 95/2/1 93/2/1 92/2/1
f 96/2/1 93/2/1 95/2/1
f 97/1/2 98/1/2 101/1/2
f 101/1/2 98/1/2 102/1/2
f 99/1/2 100/1/2 103/1/2
f 103/1/2 100/1/2 104/1/2
f 102/1/2 103/1/2 105/1/2
f 105/1/2 103/1/2 106/1/2
f 102/1/2 105/1/2 107/1/2
f 106/1/2 103/1/2 108/1/2
f 102/1/2 107/1/2 110/1/2
f 107/1/2 108/1/2 110/1/2
f 108/1/2 103/1/2 111/1/2
f 110/1/2 108/1/2 111/1/2
f 109/1/2 110/1/2 113/1/2
f 113/1/2 110/1/2 114/1/2
f 111/1/2 112/1/2 115/1/2
f 115/1/2 112/1/2 116/1/2
f 117/2/2 118/2/2 120/2/2
f 120/2/2 118/2/2 121/2/2
f 119/2/2 120/2/2 124/2/2
f 121/2/2 122/2/2 124/2/2
f 120/2/2 121/2/2 124/2/2
f 124/2/2 122/2/2 125/2/2
f 123/2/2 124/2/2 127/2/2
f 125/2/2 126/2/2 127/2/2
f 124/2/2 125/2/2 127/2/2
f 127/2/2 126/2/2 128/2/2
f 128/2/2 126/2/2 129/2/2
f 129/2/2 126/2/2 130/2/2
f 128/2/2 129/2/2 131/2/2
f 131/2/2 129/2/2 132/2/2
f 132/2/2 129/2/2 133/2/2
f 133/2/2 129/2/2 134/2/2
f 132/2/2 133/2/2 135/2/2
f 135/2/2 133/2/2 136/2/2
f 137/3/2 138/3/2 140/3/2
f 140/3/2 138/3/2 141/3/2
f 139/3/2 140/3/2 144/3/2
f 141/3/2 142/3/2 144/3/2
f 140/3/2 141/3/2 144/3/2
f 144/3/2 142/3/2 145/3/2
f 145/3/2 142/3/2 146/3/2
f 146/3/2 142/3/2 147/3/2
f 143/3/2 144/3/2 150/3/2
f 144/3/2 145/3/2 150/3/2
f 150/3/2 145/3/2 151/3/2
f 145/1/2 146/1/2 152/1/2
f 151/3/2 145/3/2 152/3/2
f 147/3/2 148/3/2 153/3/2
f 152/1/2 146/1/2 153/1/2
f 146/3/2 147/3/2 153/3/2
f 153/3/2 148/3/2 154/3/2
f 154/3/2 148/3/2 155/3/2
f 149/3/2 150/3/2 157/3/2
f 150/3/2 151/3/2 157/3/2
f 151/1/2 152/1/2 158/1/2
f 157/3/2 151/3/2 158/3/2
f 158/1/2 152/1/2 159/1/2
f 153/1/2 154/1/2 160/1/2
f 155/3/2 156/3/2 161/3/2
f 160/1/2 154/1/2 161/1/2
f 154/3/2 155/3/2 161/3/2
f 161/3/2 156/3/2 162/3/2
f 149/3/2 157/3/2 164/3/2
f 164/3/2 157/3/2 165/3/2
f 157/1/2 158/1/2 166/1/2
f 165/3/2 157/3/2 166/3/2
f 166/1/2 158/1/2 167/1/2
f 161/1/2 162/1/2 168/1/2
f 162/3/2 156/3/2 169/3/2
f 168/1/2 162/1/2 169/1/2
f 169/3/2 156/3/2 170/3/2
f 170/3/2 156/3/2 171/3/2
f 164/3/2 165/3/2 173/3/2
f 163/3/2 164/3/2 173/3/2
f 173/3/2 165/3/2 174/3/2
f 165/1/2 166/1/2 175/1/2
f 174/3/2 165/3/2 175/3/2
f 175/1/2 166/1/2 176/1/2
f 169/1/2 170/1/2 179/1/2
f 171/3/2 172/3/2 180/3/2
f 170/3/2 171/3/2 180/3/2
f 179/1/2 170/1/2 180/1/2
f 180/3/2 172/3/2 181/3/2
f 181/3/2 172/3/2 182/3/2
f 176/1/2 177/1/2 183/1/2
f 174/3/2 175/3/2 183/3/2
f 175/3/2 176/3/2 183/3/2
f 183/1/2 177/1/2 184/1/2
f 178/1/2 179/1/2 187/1/2
f 180/3/2 181/3/2 188/3/2
f 179/3/2 180/3/2 188/3/2
f 187/1/2 179/1/2 188/1/2
f 174/3/2 183/3/2 189/3/2
f 183/3/2 184/3/2 189/3/2
f 189/3/2 184/3/2 190/3/2
f 184/1/2 185/1/2 191/1/2
f 190/3/2 184/3/2 191/3/2
f 191/1/2 185/1/2 192/1/2
f 186/1/2 187/1/2 193/1/2
f 187/3/2 188/3/2 194/3/2
f 193/1/2 187/1/2 194/1/2
f 188/3/2 181/3/2 195/3/2
f 194/3/2 188/3/2 195/3/2
f 195/3/2 181/3/2 196/3/2
f 191/3/2 192/3/2 197/3/2
f 190/3/2 191/3/2 197/3/2
f 197/3/2 192/3/2 198/3/2
f 192/1/2 193/1/2 199/1/2
f 198/3/2 192/3/2 199/3/2
f 194/3/2 195/3/2 200/3/2
f 199/1/2 193/1/2 200/1/2
f 193/3/2 194/3/2 200/3/2
f 200/3/2 195/3/2 201/3/2
f 201/3/2 195/3/2 202/3/2
f 198/3/2 199/3/2 203/3/2
f 200/3/2 201/3/2 203/3/2
f 199/3/2 200/3/2 203/3/2
f 203/3/2 201/3/2 204/3/2
f 204/3/2 201/3/2 205/3/2
f 205/3/2 201/3/2 206/3/2
f 204/3/2 205/3/2 207/3/2
f 207/3/2 205/3/2 208/3/2
f 211/3/3 210/3/3 209/3/3
f 212/3/3 210/3/3 211/3/3
f 217/3/3 214/3/3 213/3/3
f 218/3/3 214/3/3 217/3/3
f 219/3/3 216/3/3 215/3/3
f 220/3/3 216/3/3 219/3/3
f 225/3/3 222/3/3 221/3/3
f 226/3/3 222/3/3 225/3/3
f 227/3/3 224/3/3 223/3/3
f 228/3/3 224/3/3 227/3/3
f 233/3/3 230/3/3 229/3/3
f 234/3/3 230/3/3 233/3/3
f 235/3/3 232/3/3 231/3/3
f 236/3/3 232/3/3 235/3/3
f 245/1/3 240/1/3 239/1/3
f 246/1/3 240/1/3 245/1/3
f 247/1/3 242/1/3 241/1/3
f 248/1/3 242/1/3 247/1/3
f 249/3/3 238/3/3 237/3/3
f 250/3/3 238/3/3 249/3/3
f 251/3/3 244/3/3 243/3/3
f 252/3/3 244/3/3 251/3/3
f 255/1/3 254/1/3 253/1/3
f 256/1/3 254/1/3 255/1/3
f 259/1/3 258/1/3 257/1/3
f 260/1/3 258/1/3 259/1/3
f 265/1/3 262/1/3 261/1/3
f 266/1/3 262/1/3 265/1/3
f 267/1/3 264/1/3 263/1/3
f 268/1/3 264/1/3 267/1/3
f 273/1/3 270/1/3 269/1/3
f 274/1/3 270/1/3 273/1/3
f 275/1/3 272/1/3 271/1/3
f 276/1/3 272/1/3 275/1/3
f 277/2/3 274/2/3 273/2/3
f 278/2/3 274/2/3 277/2/3
f 279/2/3 276/2/3 275/2/3
f 280/2/3 276/2/3 279/2/3
f 285/1/3 282/1/3 281/1/3
f 286/1/3 282/1/3 285/1/3
f 287/1/3 284/1/3 283/1/3
f 288/1/3 284/1/3 287/1/3
f 293/1/3 290/1/3 289/1/3
f 294/1/3 290/1/3 293/1/3
f 295/1/3 292/1/3 291/1/3
f 296/1/3 292/1/3 295/1/3
f 299/1/3 298/1/3 297/1/3
f 300/1/3 298/1/3 299/1/3
f 301/2/3 300/2/3 299/2/3
f 302/2/3 300/2/3 301/2/3
f 305/1/3 304/1/3 303/1/3
f 306/1/3 304/1/3 305/1/3
f 307/1/4 308/1/4 309/1/4
f 309/1/4 308/1/4 310/1/4
f 309/2/4 310/2/4 311/2/4
f 311/2/4 310/2/4 312/2/4
f 313/1/4 314/1/4 315/1/4
f 315/1/4 314/1/4 316/1/4
f 317/1/4 318/1/4 321/1/4
f 321/1/4 318/1/4 322/1/4
f 319/1/4 320/1/4 323/1/4
f 323/1/4 320/1/4 324/1/4
f 325/1/4 326/1/4 329/1/4
f 329/1/4 326/1/4 330/1/4
f 327/1/4 328/1/4 331/1/4
f 331/1/4 328/1/4 332/1/4
f 329/2/4 330/2/4 333/2/4
f 333/2/4 330/2/4 334/2/4
f 331/2/4 332/2/4 335/2/4
f 335/2/4 332/2/4 336/2/4
f 337/1/4 338/1/4 341/1/4
f 341/1/4 338/1/4 342/1/4
f 339/1/4 340/1/4 343/1/4
f 343/1/4 340/1/4 344/1/4
f 345/1/4 346/1/4 349/1/4
f 349/1/4 346/1/4 350/1/4
f 347/1/4 348/1/4 351/1/4
f 351/1/4 348/1/4 352/1/4
f 353/1/4 354/1/4 355/1/4
f 355/1/4 354/1/4 356/1/4
f 357/1/4 358/1/4 359/1/4
f 359/1/4 358/1/4 360/1/4
f 363/1/4 364/1/4 369/1/4
f 369/1/4 364/1/4 370/1/4
f 365/1/4 366/1/4 371/1/4
f 371/1/4 366/1/4 372/1/4
f 361/3/4 362/3/4 373/3/4
f 373/3/4 362/3/4 374/3/4
f 367/3/4 368/3/4 375/3/4
f 375/3/4 368/3/4 376/3/4
f 377/3/4 378/3/4 381/3/4
f 381/3/4 378/3/4 382/3/4
f 379/3/4 380/3/4 383/3/4
f 383/3/4 380/3/4 384/3/4
f 385/3/4 386/3/4 389/3/4
f 389/3/4 386/3/4 390/3/4
f 387/3/4 388/3/4 391/3/4
f 391/3/4 388/3/4 392/3/4
f 393/3/4 394/3/4 397/3/4
f 397/3/4 394/3/4 398/3/4
f 395/3/4 396/3/4 399/3/4
f 399/3/4 396/3/4 400/3/4
f 401/3/4 402/3/4 403/3/4
f 403/3/4 402/3/4 404/3/4
f 407/3/5 406/3/5 405/3/5
f 408/3/5 406/3/5 407/3/5
f 411/3/5 410/3/5 409/3/5
f 412/3/5 410/3/5 411/3/5
f 415/3/5 414/3/5 413/3/5
f 416/3/5 414/3/5 415/3/5
f 419/3/5 418/3/5 417/3/5
f 420/3/5 418/3/5 419/3/5
f 423/3/5 422/3/5 421/3/5
f 424/3/5 422/3/5 423/3/5
f 427/3/5 426/3/5 425/3/5
f 428/3/5 426/3/5 427/3/5
f 431/3/5 430/3/5 429/3/5
f 432/3/5 430/3/5 431/3/5
f 435/3/5 434/3/5 433/3/5
f 436/3/5 434/3/5 435/3/5
f 439/1/5 438/1/5 437/1/5
f 440/1/5 438/1/5 439/1/5
f 443/1/5 442/1/5 441/1/5
f 444/1/5 442/1/5 443/1/5
f 447/3/5 446/3/5 445/3/5
f 448/3/5 446/3/5 447/3/5
f 451/1/5 450/1/5 449/1/5
f 452/1/5 450/1/5 451/1/5
f 455/1/5 454/1/5 453/1/5
f 456/1/5 454/1/5 455/1/5
f 459/1/5 458/1/5 457/1/5
f 460/1/5 458/1/5 459/1/5
f 463/1/5 462/1/5 461/1/5
f 464/1/5 462/1/5 463/1/5
f 470/1/5 469/1/5 468/1/5
f 471/1/5 469/1/5 470/1/5
f 472/1/5 466/1/5 465/1/5
f 473/2/5 467/2/5 466/2/5
f 473/1/5 466/1/5 472/1/5
f 474/2/5 467/2/5 473/2/5
f 480/1/5 476/1/5 475/1/5
f 481/2/5 477/2/5 476/2/5
f 481/1/5 476/1/5 480/1/5
f 482/2/5 477/2/5 481/2/5
f 483/1/5 479/1/5 478/1/5
f 484/1/5 479/1/5 483/1/5
f 487/1/5 486/1/5 485/1/5
f 488/1/5 486/1/5 487/1/5
f 491/1/5 490/1/5 489/1/5
f 492/1/5 490/1/5 491/1/5
f 498/1/5 494/1/5 493/1/5
f 499/2/5 495/2/5 494/2/5
f 499/1/5 494/1/5 498/1/5
f 500/2/5 495/2/5 499/2/5
f 501/1/5 497/1/5 496/1/5
f 502/1/5 497/1/5 501/1/5
f 503/1/6 504/1/6 508/1/6
f 504/2/6 505/2/6 509/2/6
f 508/1/6 504/1/6 509/1/6
f 509/2/6 505/2/6 510/2/6
f 506/1/6 507/1/6 511/1/6
f 511/1/6 507/1/6 512/1/6
f 513/1/6 514/1/6 515/1/6
f 515/1/6 514/1/6 516/1/6
f 517/1/6 518/1/6 519/1/6
f 519/1/6 518/1/6 520/1/6
f 524/1/6 525/1/6 526/1/6
f 526/1/6 525/1/6 527/1/6
f 521/1/6 522/1/6 528/1/6
f 522/2/6 523/2/6 529/2/6
f 528/1/6 522/1/6 529/1/6
f 529/2/6 523/2/6 530/2/6
f 531/1/6 532/1/6 536/1/6
f 532/2/6 533/2/6 537/2/6
f 536/1/6 532/1/6 537/1/6
f 537/2/6 533/2/6 538/2/6
f 534/1/6 535/1/6 539/1/6
f 539/1/6 535/1/6 540/1/6
f 541/1/6 542/1/6 543/1/6
f 543/1/6 542/1/6 544/1/6
f 545/1/6 546/1/6 547/1/6
f 547/1/6 546/1/6 548/1/6
f 549/1/6 550/1/6 551/1/6
f 551/1/6 550/1/6 552/1/6
f 553/1/6 554/1/6 555/1/6
f 555/1/6 554/1/6 556/1/6
f 557/3/6 558/3/6 559/3/6
f 559/3/6 558/3/6 560/3/6
f 561/1/6 562/1/6 563/1/6
f 563/1/6 562/1/6 564/1/6
f 565/1/6 566/1/6 567/1/6
f 567/1/6 566/1/6 568/1/6
f 569/3/6 570/3/6 571/3/6
f 571/3/6 570/3/6 572/3/6
f 573/3/6 574/3/6 575/3/6
f 575/3/6 574/3/6 576/3/6
f 577/3/6 578/3/6 579/3/6
f 579/3/6 578/3/6 580/3/6
f 581/3/6 582/3/6 583/3/6
f 583/3/6 582/3/6 584/3/6
f 585/3/6 586/3/6 587/3/6
f 587/3/6 586/3/6 588/3/6
f 589/3/6 590/3/6 591/3/6
f 591/3/6 590/3/6 592/3/6
f 593/3/6 594/3/6 595/3/6
f 595/3/6 594/3/6 596/3/6
f 597/3/6 598/3/6 599/3/6
f 599/3/6 598/3/6 600/3/6
